  0
SECTION
  2
HEADER
  9
$ACADVER
  1
AC1021
  9
$ACADMAINTVER
 70
    50
  9
$DWGCODEPAGE
  3
ANSI_1252
  9
$INSBASE
 10
0.0
 20
0.0
 30
0.0
  9
$EXTMIN
 10
-32.967
 20
0.000
 30
1.516
  9
$EXTMAX
 10
0.000
 20
2.673
 30
19.195
  9
$LIMMIN
 10
-32.967
 20
0.000
  9
$LIMMAX
 10
0.000
 20
2.673
  9
$ORTHOMODE
 70
     0
  9
$REGENMODE
 70
     1
  9
$FILLMODE
 70
     1
  9
$QTEXTMODE
 70
     0
  9
$MIRRTEXT
 70
     1
  9
$LTSCALE
 40
1.0
  9
$ATTMODE
 70
     0
  9
$TEXTSIZE
 40
0.2
  9
$TRACEWID
 40
0.05
  9
$TEXTSTYLE
  7
MONOTEXT
  9
$CLAYER
  8
0
  9
$CELTYPE
  6
ByLayer
  9
$CECOLOR
 62
256
  9
$CELTSCALE
 40
1.0
  9
$DISPSILH
 70
     0
  9
$DIMSCALE
 40
1.0
  9
$DIMASZ
 40
0.18
  9
$DIMEXO
 40
0.0625
  9
$DIMDLI
 40
0.38
  9
$DIMRND
 40
0.0
  9
$DIMDLE
 40
0.0
  9
$DIMEXE
 40
0.18
  9
$DIMTP
 40
0.0
  9
$DIMTM
 40
0.0
  9
$DIMTXT
 40
0.18
  9
$DIMCEN
 40
0.09
  9
$DIMTSZ
 40
0.0
  9
$DIMTOL
 70
     0
  9
$DIMLIM
 70
     0
  9
$DIMTIH
 70
     1
  9
$DIMTOH
 70
     1
  9
$DIMSE1
 70
     0
  9
$DIMSE2
 70
     0
  9
$DIMTAD
 70
     0
  9
$DIMZIN
 70
     0
  9
$DIMBLK
  1

  9
$DIMASO
 70
     1
  9
$DIMSHO
 70
     0
  9
$DIMPOST
  1

  9
$DIMAPOST
  1

  9
$DIMALT
 70
     0
  9
$DIMALTD
 70
     2
  9
$DIMALTF
 40
25.4
  9
$DIMLFAC
 40
1.0
  9
$DIMTOFL
 70
     0
  9
$DIMTVP
 40
0.0
  9
$DIMTIX
 70
     0
  9
$DIMSOXD
 70
     0
  9
$DIMSAH
 70
     0
  9
$DIMBLK1
  1

  9
$DIMBLK2
  1

  9
$DIMSTYLE
  2
STANDARD
  9
$DIMCLRD
 70
     0
  9
$DIMCLRE
 70
     0
  9
$DIMCLRT
 70
     0
  9
$DIMTFAC
 40
1.0
  9
$DIMGAP
 40
0.09
  9
$DIMJUST
 70
     0
  9
$DIMSD1
 70
     0
  9
$DIMSD2
 70
     0
  9
$DIMTOLJ
 70
     1
  9
$DIMTZIN
 70
     0
  9
$DIMALTZ
 70
     0
  9
$DIMALTTZ
 70
     0
  9
$DIMUPT
 70
     0
  9
$DIMDEC
 70
     4
  9
$DIMTDEC
 70
     4
  9
$DIMALTU
 70
     2
  9
$DIMALTTD
 70
     2
  9
$DIMTXSTY
  7
MONOTEXT
  9
$DIMAUNIT
 70
     1
  9
$DIMADEC
 70
     0
  9
$DIMALTRND
 40
0.0
  9
$DIMAZIN
 70
     0
  9
$DIMDSEP
 70
     0
  9
$DIMATFIT
 70
     3
  9
$DIMFRAC
 70
     0
  9
$DIMLDRBLK
  1

  9
$DIMLUNIT
 70
     2
  9
$DIMLWD
 70
     0
  9
$DIMLWE
 70
     0
  9
$DIMTMOVE
 70
     0
  9
$LUNITS
 70
     6
  9
$LUPREC
 70
     4
  9
$SKETCHINC
 40
0.1
  9
$FILLETRAD
 40
0.0
  9
$AUNITS
 70
     1
  9
$AUPREC
 70
     0
  9
$MENU
  1
ACAD
  9
$ELEVATION
 40
0.0
  9
$PELEVATION
 40
0.0
  9
$THICKNESS
 40
0.0
  9
$LIMCHECK
 70
     0
  9
$CHAMFERA
 40
0.0
  9
$CHAMFERB
 40
0.0
  9
$CHAMFERC
 40
0.0
  9
$CHAMFERD
 40
0.0
  9
$SKPOLY
 70
     0
  9
$TDCREATE
 40
2460542.166620
  9
$TDUCREATE
 40
0.000000000
  9
$TDUPDATE
 40
0.000000000
  9
$TDUUPDATE
 40
2460542.166620
  9
$TDINDWG
 40
0.000000000
  9
$TDUSRTIMER
 40
0.000000000
  9
$USRTIMER
 70
     1
  9
$ANGBASE
 50
0.0
  9
$ANGDIR
 70
     0
  9
$PDMODE
 70
     0
  9
$PDSIZE
 40
0.0
  9
$PLINEWID
 40
0.0
  9
$SPLFRAME
 70
     0
  9
$SPLINETYPE
 70
     6
  9
$SPLINESEGS
 70
     8
  9
$HANDSEED
  5
2000000
  9
$SURFTAB1
 70
     6
  9
$SURFTAB2
 70
     6
  9
$SURFTYPE
 70
     6
  9
$SURFU
 70
     6
  9
$SURFV
 70
     6
  9
$UCSBASE
  2

  9
$UCSORG
 10
0.0
 20
0.0
 30
0.0
  9
$UCSXDIR
 10
1.0
 20
0.0
 30
0.0
  9
$UCSYDIR
 10
0.0
 20
1.0
 30
0.0
  9
$UCSORTHOREF
  2

  9
$UCSORTHOVIEW
 70
     0
  9
$UCSORGTOP
 10
0.0
 20
0.0
 30
0.0
  9
$UCSORGBOTTOM
 10
0.0
 20
0.0
 30
0.0
  9
$UCSORGLEFT
 10
0.0
 20
0.0
 30
0.0
  9
$UCSORGRIGHT
 10
0.0
 20
0.0
 30
0.0
  9
$UCSORGFRONT
 10
0.0
 20
0.0
 30
0.0
  9
$UCSORGBACK
 10
0.0
 20
0.0
 30
0.0
  9
$PUCSBASE
  2

  9
$PUCSNAME
  2

  9
$PUCSORG
 10
0.0
 20
0.0
 30
0.0
  9
$PUCSXDIR
 10
1.0
 20
0.0
 30
0.0
  9
$PUCSYDIR
 10
0.0
 20
1.0
 30
0.0
  9
$PUCSORTHOREF
  2

  9
$PUCSORTHOVIEW
 70
     0
  9
$PUCSORGTOP
 10
0.0
 20
0.0
 30
0.0
  9
$PUCSORGBOTTOM
 10
0.0
 20
0.0
 30
0.0
  9
$PUCSORGLEFT
 10
0.0
 20
0.0
 30
0.0
  9
$PUCSORGRIGHT
 10
0.0
 20
0.0
 30
0.0
  9
$PUCSORGFRONT
 10
0.0
 20
0.0
 30
0.0
  9
$PUCSORGBACK
 10
0.0
 20
0.0
 30
0.0
  9
$USERI1
 70
     0
  9
$USERI2
 70
     0
  9
$USERI3
 70
     0
  9
$USERI4
 70
     0
  9
$USERI5
 70
     0
  9
$USERR1
 40
0.0
  9
$USERR2
 40
0.0
  9
$USERR3
 40
0.0
  9
$USERR4
 40
0.0
  9
$USERR5
 40
0.0
  9
$WORLDVIEW
 70
     1
  9
$SHADEDGE
 70
     3
  9
$SHADEDIF
 70
    70
  9
$TILEMODE
 70
     1
  9
$MAXACTVP
 70
    16
  9
$PINSBASE
 10
0.0
 20
0.0
 30
0.0
  9
$PLIMCHECK
 70
     0
  9
$PEXTMIN
 10
1.000000E+20
 20
1.000000E+20
 30
1.000000E+20
  9
$PEXTMAX
 10
-1.000000E+20
 20
-1.000000E+20
 30
-1.000000E+20
  9
$PLIMMIN
 10
0.0
 20
0.0
  9
$PLIMMAX
 10
12.0
 20
9.0
  9
$UNITMODE
 70
     0
  9
$VISRETAIN
 70
     0
  9
$PLINEGEN
 70
     1
  9
$PSLTSCALE
 70
     1
  9
$TREEDEPTH
 70
  3020
  9
$CMLSTYLE
  2
STANDARD
  9
$CMLJUST
 70
     0
  9
$CMLSCALE
 40
1.0
  9
$PROXYGRAPHICS
 70
     0
  9
$MEASUREMENT
 70
     1
  9
$CELWEIGHT
370
     0
  9
$ENDCAPS
280
     0
  9
$JOINSTYLE
280
     0
  9
$LWDISPLAY
290
     0
  9
$INSUNITS
 70
     6
  9
$HYPERLINKBASE
  1

  9
$STYLESHEET
  1

  9
$XEDIT
290
     1
  9
$CEPSNTYPE
380
     0
  9
$PSTYLEMODE
290
     1
  9
$FINGERPRINTGUID
  2

  9
$VERSIONGUID
  2

  9
$EXTNAMES
290
     1
  9
$PSVPSCALE
 40
0.0
  0
ENDSEC
  0
SECTION
  2
CLASSES
  0
CLASS
  1
LWPOLYLINE
  2
AcDbPolyline
  3
ObjectDBX Classes
 90
        0
 91
        0
280
     0
281
     1
  0
CLASS
  1
IMAGE
  2
AcDbRasterImage
  3
ISM
 90
        0
 91
        0
280
     0
281
     1
  0
CLASS
  1
OLE2FRAME
  2
AcDbOle2Frame
  3
ObjectDBX Classes
 90
        0
 91
        0
280
     0
281
     1
  0
CLASS
  1
HATCH
  2
AcDbHatch
  3
ObjectDBX Classes
 90
        0
 91
        0
280
     0
281
     1
  0
CLASS
  1
DICTIONARYVAR
  2
AcDbDictionaryVar
  3
ObjectDBX Classes
 90
        0
 91
        0
280
     0
281
     0
  0
CLASS
  1
RASTERVARIABLES
  2
AcDbRasterVariables
  3
ISM
 90
        0
 91
        0
280
     0
281
     0
  0
CLASS
  1
IMAGEDEF
  2
AcDbRasterImageDef
  3
ISM
 90
        0
 91
        0
280
     0
281
     0
  0
CLASS
  1
IMAGEDEF_REACTOR
  2
AcDbRasterImageDefReactor
  3
ISM
 90
        0
 91
        0
280
     0
281
     0
  0
CLASS
  1
IDBUFFER
  2
AcDbIdBuffer
  3
ObjectDBX Classes
 90
        0
 91
        0
280
     0
281
     0
  0
CLASS
  1
SPATIAL_FILTER
  2
AcDbSpatialFilter
  3
ObjectDBX Classes
 90
        0
 91
        0
280
     0
281
     0
  0
CLASS
  1
XRECORD
  2
AcDbXrecord
  3
ObjectDBX Classes
 90
        0
 91
        0
280
     0
281
     0
  0
CLASS
  1
SORTENTSTABLE
  2
AcDbSortentsTable
  3
ObjectDBX Classes
 90
        0
 91
        0
280
     0
281
     0
  0
CLASS
  1
LAYER_INDEX
  2
AcDbLayerIndex
  3
ObjectDBX Classes
 90
        0
 91
        0
280
     0
281
     0
  0
CLASS
  1
SPATIAL_INDEX
  2
AcDbSpatialIndex
  3
ObjectDBX Classes
 90
        0
 91
        0
280
     0
281
     0
  0
CLASS
  1
OBJECT_PTR
  2
CAseDLPNTableRecord
  3
ASE-LPNTableRecord
 90
        0
 91
        0
280
     0
281
     0
  0
CLASS
  1
LAYOUT
  2
AcDbLayout
  3
ObjectDBX Classes
 90
        0
 91
        0
280
     0
281
     0
  0
CLASS
  1
PLOTSETTINGS
  2
AcDbPlotSettings
  3
ObjectDBX Classes
 90
        0
 91
        0
280
     0
281
     0
  0
CLASS
  1
ACDBDICTIONARYWDFLT
  2
AcDbDictionaryWithDefault
  3
ObjectDBX Classes
 90
        0
 91
        0
280
     0
281
     0
  0
CLASS
  1
ACDBPLACEHOLDER
  2
AcDbPlaceHolder
  3
ObjectDBX Classes
 90
        0
 91
        0
280
     0
281
     0
  0
CLASS
  1
VBA_PROJECT
  2
AcDbVbaProject
  3
acadvba
 90
        0
 91
        0
280
     0
281
     0
  0
CLASS
  1
WIPEOUT
  2
AcDbWipeout
  3
WipeOut|AutoCAD Express Tool|expresstools@autodesk.com
 90
        0
 91
        0
280
     0
281
     1
  0
CLASS
  1
WIPEOUTVARIABLES
  2
AcDbWipeoutVariables
  3
WipeOut|AutoCAD Express Tool|expresstools@autodesk.com
 90
        0
 91
        0
280
     0
281
     0
  0
CLASS
  1
RTEXT
  2
RText
  3
RText|AutoCAD Express Tool|expresstools@autodesk.com
 90
        0
 91
        0
280
     0
281
     1
  0
CLASS
  1
ARCALIGNEDTEXT
  2
AcDbArcAlignedText
  3
ATEXT|AutoCAD Express Tool|expresstools@autodesk.com
 90
        0
 91
        0
280
     0
281
     1
  0
ENDSEC
  0
SECTION
  2
TABLES
  0
TABLE
  2
VPORT
  5
500
100
AcDbSymbolTable
 70
     1
  0
VPORT
  5
501
100
AcDbSymbolTableRecord
100
AcDbViewportTableRecord
  2
*ACTIVE
 70
     0
 10
0.0
 20
0.0
 11
1.0
 21
1.0
 12
-16.4834
 22
1.3364
 13
0.0
 23
0.0
 14
1.0
 24
1.0
 15
0.0
 25
0.0
 16
0.0
 26
0.0
 36
1.0
 17
0.0
 27
0.0
 37
0.0
 40
0.000003
 41
1.852941
 42
50.0
 43
0.0
 44
0.0
 50
0.0
 51
0.0
 71
     0
 72
   100
 73
     1
 74
     1
 75
     0
 76
     0
 77
     0
 78
     0
281
     0
 65
     0
110
0.0
120
0.0
130
0.0
111
1.0
121
0.0
131
0.0
112
0.0
122
1.0
132
0.0
345
0
346
0
 79
     0
146
0.0
  0
ENDTAB
  0
TABLE
  2
LTYPE
  5
502
100
AcDbSymbolTable
 70
     3
  0
LTYPE
  5
503
100
AcDbSymbolTableRecord
100
AcDbLinetypeTableRecord
  2
ByBlock
 70
     0
  3

 72
    65
 73
     0
 40
0.0
  0
LTYPE
  5
504
100
AcDbSymbolTableRecord
100
AcDbLinetypeTableRecord
  2
ByLayer
 70
     0
  3

 72
    65
 73
     0
 40
0.0
  0
LTYPE
  5
505
100
AcDbSymbolTableRecord
100
AcDbLinetypeTableRecord
  2
CONTINUOUS
 70
     0
  3
Solid line
 72
    65
 73
     0
 40
0.0
  0
LTYPE
  5
506
100
AcDbSymbolTableRecord
100
AcDbLinetypeTableRecord
  2
DASHED
 70
     0
  3
Dashed line
 72
    65
 73
     2
 40
10.0
 49
5.0
 74
     0
 49
-5.0
 74
     0
  0
ENDTAB
  0
TABLE
  2
LAYER
  5
507
100
AcDbSymbolTable
 70
     1
  0
LAYER
  5
508
100
AcDbSymbolTableRecord
100
AcDbLayerTableRecord
  2
0
 70
     0
 62
     7
  6
CONTINUOUS
290
     1
370
    -3
390
25E
  0
LAYER
  5
509
100
AcDbSymbolTableRecord
100
AcDbLayerTableRecord
  2
Точки
 70
     0
 62
     7
  6
CONTINUOUS
290
     1
370
    -3
390
25E
  0
LAYER
  5
510
100
AcDbSymbolTableRecord
100
AcDbLayerTableRecord
  2
Прямые
 70
     0
 62
     7
  6
CONTINUOUS
290
     1
370
    -3
390
25E
  0
ENDTAB
  0
TABLE
  2
STYLE
  5
511
100
AcDbSymbolTable
 70
     2
  0
STYLE
  5
512
100
AcDbSymbolTableRecord
100
AcDbTextStyleTableRecord
  2
STANDARD
 70
     0
 40
0.0
 41
1.0
 50
0.0
 71
     0
 42
0.2
  3
txt
  4

  0
STYLE
  5
513
100
AcDbSymbolTableRecord
100
AcDbTextStyleTableRecord
  2
MONOTEXT
 70
     0
 40
0.0
 41
1.0
 50
0.0
 71
     0
 42
0.2
  3
txt
  4

  0
ENDTAB
  0
TABLE
  2
VIEW
  5
514
100
AcDbSymbolTable
 70
     0
  0
ENDTAB
  0
TABLE
  2
UCS
  5
515
100
AcDbSymbolTable
 70
     0
  0
ENDTAB
  0
TABLE
  2
APPID
  5
516
100
AcDbSymbolTable
 70
     1
  0
APPID
  5
517
100
AcDbSymbolTableRecord
100
AcDbRegAppTableRecord
  2
ACAD
 70
     0
  0
ENDTAB
  0
TABLE
  2
DIMSTYLE
  5
518
100
AcDbSymbolTable
 70
     1
100
AcDbDimStyleTable
 71
     0
  0
DIMSTYLE
105
256
100
AcDbSymbolTableRecord
100
AcDbDimStyleTableRecord
  2
STANDARD
 70
     0
  3

  4

 40
1.0
 41
0.18
 42
0.0625
 43
0.38
 44
0.18
 45
0.0
 46
0.0
 47
0.0
 48
0.0
 71
     0
 72
     0
 73
     1
 74
     1
 75
     0
 76
     0
 77
     0
 78
     0
 79
     0
140
0.18
141
0.09
142
0.0
143
25.4
144
1.0
145
0.0
146
1.0
147
0.09
148
0.0
170
     0
171
     2
172
     0
173
     0
174
     0
175
     0
176
     0
177
     0
178
     0
179
     0
271
     4
272
     4
273
     2
274
     2
275
     0
276
     0
277
     2
278
    46
279
     0
280
     0
281
     0
282
     0
283
     1
284
     0
285
     0
286
     0
288
     0
341
0
342
0
343
0
344
0
371
    -2
372
    -2
  0
ENDTAB
  0
TABLE
  2
BLOCK_RECORD
  5
519
100
AcDbSymbolTable
 70
     9
  0
BLOCK_RECORD
  5
520
100
AcDbSymbolTableRecord
100
AcDbBlockTableRecord
  2
*MODEL_SPACE
  0
BLOCK_RECORD
  5
521
100
AcDbSymbolTableRecord
100
AcDbBlockTableRecord
  2
*PAPER_SPACE
  0
BLOCK_RECORD
  5
522
100
AcDbSymbolTableRecord
100
AcDbBlockTableRecord
  2
DOT
  0
BLOCK_RECORD
  5
523
100
AcDbSymbolTableRecord
100
AcDbBlockTableRecord
  2
CROSS
  0
BLOCK_RECORD
  5
524
100
AcDbSymbolTableRecord
100
AcDbBlockTableRecord
  2
DIAG_CROSS
  0
BLOCK_RECORD
  5
525
100
AcDbSymbolTableRecord
100
AcDbBlockTableRecord
  2
CIRCLE
  0
BLOCK_RECORD
  5
526
100
AcDbSymbolTableRecord
100
AcDbBlockTableRecord
  2
DOUBLE_CIRCLE
  0
BLOCK_RECORD
  5
527
100
AcDbSymbolTableRecord
100
AcDbBlockTableRecord
  2
TRIANGLE
  0
BLOCK_RECORD
  5
528
100
AcDbSymbolTableRecord
100
AcDbBlockTableRecord
  2
DOUBLE_TRIANGLE
  0
BLOCK_RECORD
  5
529
100
AcDbSymbolTableRecord
100
AcDbBlockTableRecord
  2
STAKED_FLAG
  0
BLOCK_RECORD
  5
530
100
AcDbSymbolTableRecord
100
AcDbBlockTableRecord
  2
BOX
  0
ENDTAB
  0
ENDSEC
  0
SECTION
  2
BLOCKS
  0
BLOCK
  5
531
100
AcDbEntity
  8
0
100
AcDbBlockBegin
  2
*MODEL_SPACE
 70
     0
 10
0.0
 20
0.0
 30
0.0
  3
*MODEL_SPACE
  1

  0
ENDBLK
  5
532
100
AcDbEntity
  8
0
100
AcDbBlockEnd
  0
BLOCK
  5
533
100
AcDbEntity
 67
     1
  8
0
100
AcDbBlockBegin
  2
*PAPER_SPACE
 70
     0
 10
0.0
 20
0.0
 30
0.0
  3
*PAPER_SPACE
  1

  0
ENDBLK
  5
534
100
AcDbEntity
 67
     1
  8
0
100
AcDbBlockEnd
  0
BLOCK
  5
535
100
AcDbEntity
  8
0
 62
     0
100
AcDbBlockBegin
  2
DOT
 70
     2
 10
100.0
 20
100.0
 30
0.0
  3
DOT
  1

  0
POINT
  5
536
100
AcDbEntity
  8
0
 62
     0
100
AcDbPoint
 10
100.0
 20
100.0
  0
ENDBLK
  5
537
100
AcDbEntity
  8
0
100
AcDbBlockEnd
  0
BLOCK
  5
538
100
AcDbEntity
  8
0
 62
     0
100
AcDbBlockBegin
  2
CROSS
 70
     2
 10
100.0
 20
100.0
 30
0.0
  3
CROSS
  1

  0
LINE
  5
539
100
AcDbEntity
  8
0
 62
     0
100
AcDbLine
 10
0.0
 20
100.0
 11
200.0
 21
100.0
  0
LINE
  5
540
100
AcDbEntity
  8
0
 62
     0
100
AcDbLine
 10
100.0
 20
200.0
 11
100.0
 21
0.0
  0
ENDBLK
  5
541
100
AcDbEntity
  8
0
100
AcDbBlockEnd
  0
BLOCK
  5
542
100
AcDbEntity
  8
0
 62
     0
100
AcDbBlockBegin
  2
DIAG_CROSS
 70
     2
 10
100.0
 20
100.0
 30
0.0
  3
DIAG_CROSS
  1

  0
LINE
  5
543
100
AcDbEntity
  8
0
 62
     0
100
AcDbLine
 10
0.0
 20
200.0
 11
200.0
 21
0.0
  0
LINE
  5
544
100
AcDbEntity
  8
0
 62
     0
100
AcDbLine
 10
0.0
 20
0.0
 11
200.0
 21
200.0
  0
ENDBLK
  5
545
100
AcDbEntity
  8
0
100
AcDbBlockEnd
  0
BLOCK
  5
546
100
AcDbEntity
  8
0
 62
     0
100
AcDbBlockBegin
  2
CIRCLE
 70
     2
 10
100.0
 20
100.0
 30
0.0
  3
CIRCLE
  1

  0
ARC
  5
547
100
AcDbEntity
  8
0
 62
     0
100
AcDbCircle
 10
100.0
 20
100.0
 40
100.0
100
AcDbArc
 50
270.0
 51
90.0
  0
ARC
  5
548
100
AcDbEntity
  8
0
 62
     0
100
AcDbCircle
 10
100.0
 20
100.0
 40
100.0
100
AcDbArc
 50
90.0
 51
270.0
  0
ENDBLK
  5
549
100
AcDbEntity
  8
0
100
AcDbBlockEnd
  0
BLOCK
  5
550
100
AcDbEntity
  8
0
 62
     0
100
AcDbBlockBegin
  2
DOUBLE_CIRCLE
 70
     2
 10
100.0
 20
100.0
 30
0.0
  3
DOUBLE_CIRCLE
  1

  0
ARC
  5
551
100
AcDbEntity
  8
0
 62
     0
100
AcDbCircle
 10
100.0
 20
100.0
 40
100.0
100
AcDbArc
 50
270.0
 51
90.0
  0
ARC
  5
552
100
AcDbEntity
  8
0
 62
     0
100
AcDbCircle
 10
100.0
 20
100.0
 40
100.0
100
AcDbArc
 50
90.0
 51
270.0
  0
ARC
  5
553
100
AcDbEntity
  8
0
 62
     0
100
AcDbCircle
 10
100.0
 20
100.0
 40
70.0
100
AcDbArc
 50
270.0
 51
90.0
  0
ARC
  5
554
100
AcDbEntity
  8
0
 62
     0
100
AcDbCircle
 10
100.0
 20
100.0
 40
70.0
100
AcDbArc
 50
90.0
 51
270.0
  0
ENDBLK
  5
555
100
AcDbEntity
  8
0
100
AcDbBlockEnd
  0
BLOCK
  5
556
100
AcDbEntity
  8
0
 62
     0
100
AcDbBlockBegin
  2
TRIANGLE
 70
     2
 10
100.0
 20
80.0
 30
0.0
  3
TRIANGLE
  1

  0
LINE
  5
557
100
AcDbEntity
  8
0
 62
     0
100
AcDbLine
 10
0.0
 20
20.0
 11
200.0
 21
20.0
  0
LINE
  5
558
100
AcDbEntity
  8
0
 62
     0
100
AcDbLine
 10
0.0
 20
20.0
 11
100.0
 21
190.0
  0
LINE
  5
559
100
AcDbEntity
  8
0
 62
     0
100
AcDbLine
 10
100.0
 20
190.0
 11
200.0
 21
20.0
  0
ENDBLK
  5
560
100
AcDbEntity
  8
0
100
AcDbBlockEnd
  0
BLOCK
  5
561
100
AcDbEntity
  8
0
 62
     0
100
AcDbBlockBegin
  2
DOUBLE_TRIANGLE
 70
     2
 10
100.0
 20
80.0
 30
0.0
  3
DOUBLE_TRIANGLE
  1

  0
LINE
  5
562
100
AcDbEntity
  8
0
 62
     0
100
AcDbLine
 10
100.0
 20
190.0
 11
0.0
 21
20.0
  0
LINE
  5
563
100
AcDbEntity
  8
0
 62
     0
100
AcDbLine
 10
200.0
 20
20.0
 11
100.0
 21
190.0
  0
LINE
  5
564
100
AcDbEntity
  8
0
 62
     0
100
AcDbLine
 10
0.0
 20
20.0
 11
200.0
 21
20.0
  0
LINE
  5
565
100
AcDbEntity
  8
0
 62
     0
100
AcDbLine
 10
52.0
 20
50.0
 11
148.0
 21
50.0
  0
LINE
  5
566
100
AcDbEntity
  8
0
 62
     0
100
AcDbLine
 10
52.0
 20
50.0
 11
100.0
 21
134.0
  0
LINE
  5
567
100
AcDbEntity
  8
0
 62
     0
100
AcDbLine
 10
100.0
 20
134.0
 11
148.0
 21
50.0
  0
ENDBLK
  5
568
100
AcDbEntity
  8
0
100
AcDbBlockEnd
  0
BLOCK
  5
569
100
AcDbEntity
  8
0
 62
     0
100
AcDbBlockBegin
  2
STAKED_FLAG
 70
     2
 10
100.0
 20
100.0
 30
0.0
  3
STAKED_FLAG
  1

  0
LINE
  5
570
100
AcDbEntity
  8
0
 62
     0
100
AcDbLine
 10
100.0
 20
20.0
 11
100.0
 21
180.0
  0
LINE
  5
571
100
AcDbEntity
  8
0
 62
     0
100
AcDbLine
 10
100.0
 20
180.0
 11
150.0
 21
140.0
  0
LINE
  5
572
100
AcDbEntity
  8
0
 62
     0
100
AcDbLine
 10
150.0
 20
140.0
 11
100.0
 21
100.0
  0
ENDBLK
  5
573
100
AcDbEntity
  8
0
100
AcDbBlockEnd
  0
BLOCK
  5
574
100
AcDbEntity
  8
0
 62
     0
100
AcDbBlockBegin
  2
BOX
 70
     2
 10
100.0
 20
100.0
 30
0.0
  3
BOX
  1

  0
LINE
  5
575
100
AcDbEntity
  8
0
 62
     0
100
AcDbLine
 10
0.0
 20
0.0
 11
200.0
 21
0.0
  0
LINE
  5
576
100
AcDbEntity
  8
0
 62
     0
100
AcDbLine
 10
200.0
 20
0.0
 11
200.0
 21
200.0
  0
LINE
  5
577
100
AcDbEntity
  8
0
 62
     0
100
AcDbLine
 10
200.0
 20
200.0
 11
0.0
 21
200.0
  0
LINE
  5
578
100
AcDbEntity
  8
0
 62
     0
100
AcDbLine
 10
0.0
 20
200.0
 11
0.0
 21
0.0
  0
ENDBLK
  5
579
100
AcDbEntity
  8
0
100
AcDbBlockEnd
  0
ENDSEC
  0
SECTION
  2
ENTITIES
  0
INSERT
  5
580
100
AcDbEntity
  8
Точки
100
AcDbBlockReference
 66
     1
  2
CIRCLE
 10
0.000000
 20
0.000000
 30
1.602000
 41
0.000292
 42
0.000292
 43
0.000292
  0
ATTRIB
  5
581
100
AcDbEntity
  8
Точки_Attrib
100
AcDbText
 10
0.400000
 20
0.400000
 30
1.602000
 40
1.0
  1
01
100
AcDbAttribute
  2
Name
 70
     0
  0
ATTRIB
  5
582
100
AcDbEntity
  8
Точки_Attrib
100
AcDbText
 10
0.400000
 20
-2.800000
 30
1.602000
 40
1.0
  1
1.602
100
AcDbAttribute
  2
Elevation
 70
     0
  0
SEQEND
  5
583
100
AcDbEntity
  8
Точки
  0
INSERT
  5
584
100
AcDbEntity
  8
Точки
100
AcDbBlockReference
 66
     1
  2
DIAG_CROSS
 10
-32.572811
 20
2.672893
 30
1.543268
 41
0.000292
 42
0.000292
 43
0.000292
  0
ATTRIB
  5
585
100
AcDbEntity
  8
Точки_Attrib
100
AcDbText
 10
-32.172811
 20
3.072893
 30
1.543268
 40
1.0
  1
11
100
AcDbAttribute
  2
Name
 70
     0
  0
ATTRIB
  5
586
100
AcDbEntity
  8
Точки_Attrib
100
AcDbText
 10
-32.172811
 20
-0.127107
 30
1.543268
 40
1.0
  1
1.543
100
AcDbAttribute
  2
Elevation
 70
     0
  0
SEQEND
  5
587
100
AcDbEntity
  8
Точки
  0
INSERT
  5
588
100
AcDbEntity
  8
Точки
100
AcDbBlockReference
 66
     1
  2
DIAG_CROSS
 10
-32.423475
 20
2.015603
 30
12.964278
 41
0.000292
 42
0.000292
 43
0.000292
  0
ATTRIB
  5
589
100
AcDbEntity
  8
Точки_Attrib
100
AcDbText
 10
-32.023475
 20
2.415603
 30
12.964278
 40
1.0
  1
12
100
AcDbAttribute
  2
Name
 70
     0
  0
ATTRIB
  5
590
100
AcDbEntity
  8
Точки_Attrib
100
AcDbText
 10
-32.023475
 20
-0.784397
 30
12.964278
 40
1.0
  1
12.964
100
AcDbAttribute
  2
Elevation
 70
     0
  0
SEQEND
  5
591
100
AcDbEntity
  8
Точки
  0
INSERT
  5
592
100
AcDbEntity
  8
Точки
100
AcDbBlockReference
 66
     1
  2
DIAG_CROSS
 10
-32.417704
 20
2.011476
 30
13.079988
 41
0.000292
 42
0.000292
 43
0.000292
  0
ATTRIB
  5
593
100
AcDbEntity
  8
Точки_Attrib
100
AcDbText
 10
-32.017704
 20
2.411476
 30
13.079988
 40
1.0
  1
13
100
AcDbAttribute
  2
Name
 70
     0
  0
ATTRIB
  5
594
100
AcDbEntity
  8
Точки_Attrib
100
AcDbText
 10
-32.017704
 20
-0.788524
 30
13.079988
 40
1.0
  1
13.080
100
AcDbAttribute
  2
Elevation
 70
     0
  0
SEQEND
  5
595
100
AcDbEntity
  8
Точки
  0
INSERT
  5
596
100
AcDbEntity
  8
Точки
100
AcDbBlockReference
 66
     1
  2
DIAG_CROSS
 10
-32.372427
 20
2.060615
 30
19.188047
 41
0.000292
 42
0.000292
 43
0.000292
  0
ATTRIB
  5
597
100
AcDbEntity
  8
Точки_Attrib
100
AcDbText
 10
-31.972427
 20
2.460615
 30
19.188047
 40
1.0
  1
14
100
AcDbAttribute
  2
Name
 70
     0
  0
ATTRIB
  5
598
100
AcDbEntity
  8
Точки_Attrib
100
AcDbText
 10
-31.972427
 20
-0.739385
 30
19.188047
 40
1.0
  1
19.188
100
AcDbAttribute
  2
Elevation
 70
     0
  0
SEQEND
  5
599
100
AcDbEntity
  8
Точки
  0
INSERT
  5
600
100
AcDbEntity
  8
Точки
100
AcDbBlockReference
 66
     1
  2
DIAG_CROSS
 10
-30.508628
 20
1.011585
 30
1.527244
 41
0.000292
 42
0.000292
 43
0.000292
  0
ATTRIB
  5
601
100
AcDbEntity
  8
Точки_Attrib
100
AcDbText
 10
-30.108628
 20
1.411585
 30
1.527244
 40
1.0
  1
21
100
AcDbAttribute
  2
Name
 70
     0
  0
ATTRIB
  5
602
100
AcDbEntity
  8
Точки_Attrib
100
AcDbText
 10
-30.108628
 20
-1.788415
 30
1.527244
 40
1.0
  1
1.527
100
AcDbAttribute
  2
Elevation
 70
     0
  0
SEQEND
  5
603
100
AcDbEntity
  8
Точки
  0
INSERT
  5
604
100
AcDbEntity
  8
Точки
100
AcDbBlockReference
 66
     1
  2
DIAG_CROSS
 10
-31.244088
 20
1.094716
 30
12.967803
 41
0.000292
 42
0.000292
 43
0.000292
  0
ATTRIB
  5
605
100
AcDbEntity
  8
Точки_Attrib
100
AcDbText
 10
-30.844088
 20
1.494716
 30
12.967803
 40
1.0
  1
22
100
AcDbAttribute
  2
Name
 70
     0
  0
ATTRIB
  5
606
100
AcDbEntity
  8
Точки_Attrib
100
AcDbText
 10
-30.844088
 20
-1.705284
 30
12.967803
 40
1.0
  1
12.968
100
AcDbAttribute
  2
Elevation
 70
     0
  0
SEQEND
  5
607
100
AcDbEntity
  8
Точки
  0
INSERT
  5
608
100
AcDbEntity
  8
Точки
100
AcDbBlockReference
 66
     1
  2
DIAG_CROSS
 10
-31.216315
 20
1.111072
 30
19.184214
 41
0.000292
 42
0.000292
 43
0.000292
  0
ATTRIB
  5
609
100
AcDbEntity
  8
Точки_Attrib
100
AcDbText
 10
-30.816315
 20
1.511072
 30
19.184214
 40
1.0
  1
23
100
AcDbAttribute
  2
Name
 70
     0
  0
ATTRIB
  5
610
100
AcDbEntity
  8
Точки_Attrib
100
AcDbText
 10
-30.816315
 20
-1.688928
 30
19.184214
 40
1.0
  1
19.184
100
AcDbAttribute
  2
Elevation
 70
     0
  0
SEQEND
  5
611
100
AcDbEntity
  8
Точки
  0
INSERT
  5
612
100
AcDbEntity
  8
Точки
100
AcDbBlockReference
 66
     1
  2
DIAG_CROSS
 10
-32.966810
 20
0.055245
 30
1.515646
 41
0.000292
 42
0.000292
 43
0.000292
  0
ATTRIB
  5
613
100
AcDbEntity
  8
Точки_Attrib
100
AcDbText
 10
-32.566810
 20
0.455245
 30
1.515646
 40
1.0
  1
31
100
AcDbAttribute
  2
Name
 70
     0
  0
ATTRIB
  5
614
100
AcDbEntity
  8
Точки_Attrib
100
AcDbText
 10
-32.566810
 20
-2.744755
 30
1.515646
 40
1.0
  1
1.516
100
AcDbAttribute
  2
Elevation
 70
     0
  0
SEQEND
  5
615
100
AcDbEntity
  8
Точки
  0
INSERT
  5
616
100
AcDbEntity
  8
Точки
100
AcDbBlockReference
 66
     1
  2
DIAG_CROSS
 10
-32.639125
 20
0.517225
 30
12.968615
 41
0.000292
 42
0.000292
 43
0.000292
  0
ATTRIB
  5
617
100
AcDbEntity
  8
Точки_Attrib
100
AcDbText
 10
-32.239125
 20
0.917225
 30
12.968615
 40
1.0
  1
32
100
AcDbAttribute
  2
Name
 70
     0
  0
ATTRIB
  5
618
100
AcDbEntity
  8
Точки_Attrib
100
AcDbText
 10
-32.239125
 20
-2.282775
 30
12.968615
 40
1.0
  1
12.969
100
AcDbAttribute
  2
Elevation
 70
     0
  0
SEQEND
  5
619
100
AcDbEntity
  8
Точки
  0
INSERT
  5
620
100
AcDbEntity
  8
Точки
100
AcDbBlockReference
 66
     1
  2
DIAG_CROSS
 10
-32.600757
 20
0.539296
 30
13.054264
 41
0.000292
 42
0.000292
 43
0.000292
  0
ATTRIB
  5
621
100
AcDbEntity
  8
Точки_Attrib
100
AcDbText
 10
-32.200757
 20
0.939296
 30
13.054264
 40
1.0
  1
33
100
AcDbAttribute
  2
Name
 70
     0
  0
ATTRIB
  5
622
100
AcDbEntity
  8
Точки_Attrib
100
AcDbText
 10
-32.200757
 20
-2.260704
 30
13.054264
 40
1.0
  1
13.054
100
AcDbAttribute
  2
Elevation
 70
     0
  0
SEQEND
  5
623
100
AcDbEntity
  8
Точки
  0
INSERT
  5
624
100
AcDbEntity
  8
Точки
100
AcDbBlockReference
 66
     1
  2
DIAG_CROSS
 10
-32.616580
 20
0.573474
 30
19.195495
 41
0.000292
 42
0.000292
 43
0.000292
  0
ATTRIB
  5
625
100
AcDbEntity
  8
Точки_Attrib
100
AcDbText
 10
-32.216580
 20
0.973474
 30
19.195495
 40
1.0
  1
34
100
AcDbAttribute
  2
Name
 70
     0
  0
ATTRIB
  5
626
100
AcDbEntity
  8
Точки_Attrib
100
AcDbText
 10
-32.216580
 20
-2.226526
 30
19.195495
 40
1.0
  1
19.195
100
AcDbAttribute
  2
Elevation
 70
     0
  0
SEQEND
  5
627
100
AcDbEntity
  8
Точки
  0
ENDSEC
  0
SECTION
  2
OBJECTS
  0
DICTIONARY
  5
C
100
AcDbDictionary
280
     0
281
     0
  3
ACAD_GROUP
350
D
  3
ACAD_MLINESTYLE
350
E
  3
ACAD_LAYOUT
350
25F
  3
ACAD_PLOTSETTINGS
350
263
  3
ACAD_PLOTSTYLENAME
350
260
  3
ACAD_WIPEOUT_VARS
350
264
  0
DICTIONARY
  5
D
102
{ACAD_REACTORS
330
C
102
}
100
AcDbDictionary
280
     0
281
     0
  0
DICTIONARY
  5
E
102
{ACAD_REACTORS
330
C
102
}
100
AcDbDictionary
280
     0
281
     0
  3
STANDARD
350
1C
  0
MLINESTYLE
  5
1C
102
{ACAD_REACTORS
330
E
102
}
100
AcDbMlineStyle
  2
STANDARD
 70
     0
  3

 62
     0
 51
90.0
 52
90.0
 71
     2
 49
0.5
 62
   256
  6
ByLayer
 49
-0.5
 62
   256
  6
ByLayer
  0
ACDBDICTIONARYWDFLT
  5
260
102
{ACAD_REACTORS
330
C
102
}
100
AcDbDictionary
281
     1
  3
Normal
350
25E
100
AcDbDictionaryWithDefault
  0
ACDBPLACEHOLDER
  5
25E
102
{ACAD_REACTORS
330
260
102
}
  0
LAYOUT
  5
261
102
{ACAD_REACTORS
330
25F
102
}
100
AcDbPlotSettings
  1

  2

  4

  6

 40
0.0
 41
0.0
 42
0.0
 43
0.0
 44
0.0
 45
0.0
 46
0.0
 47
0.0
 48
0.0
 49
0.0
140
0.0
141
0.0
142
1.0
143
1.0
 70
  1024
 72
     0
 73
     0
 74
     0
  7

 75
     0
147
1.0
148
0.0
149
0.0
100
AcDbLayout
  1
Model
 70
     0
 71
     0
 10
0.0
 20
0.0
 11
0.0
 21
0.0
 12
0.0
 22
0.0
 32
0.0
 14
0.0
 24
0.0
 34
0.0
 15
0.0
 25
0.0
 35
0.0
146
0.0
 13
0.0
 23
0.0
 33
0.0
 16
0.0
 26
0.0
 36
0.0
 17
0.0
 27
0.0
 37
0.0
 76
     0
330
19
331
0
345
0
346
0
  0
LAYOUT
  5
262
102
{ACAD_REACTORS
330
25F
102
}
100
AcDbPlotSettings
  1

  2

  4

  6

 40
0.0
 41
0.0
 42
0.0
 43
0.0
 44
0.0
 45
0.0
 46
0.0
 47
0.0
 48
0.0
 49
0.0
140
0.0
141
0.0
142
1.0
143
1.0
 70
     0
 72
     0
 73
     0
 74
     0
  7

 75
     0
147
1.0
148
0.0
149
0.0
100
AcDbLayout
  1
Layout1
 70
     0
 71
     0
 10
0.0
 20
0.0
 11
0.0
 21
0.0
 12
0.0
 22
0.0
 32
0.0
 14
0.0
 24
0.0
 34
0.0
 15
0.0
 25
0.0
 35
0.0
146
0.0
 13
0.0
 23
0.0
 33
0.0
 16
0.0
 26
0.0
 36
0.0
 17
0.0
 27
0.0
 37
0.0
 76
     0
330
16
331
0
345
0
346
0
  0
DICTIONARY
  5
25F
102
{ACAD_REACTORS
330
C
102
}
100
AcDbDictionary
280
     0
281
     1
  3
Layout1
350
262
  3
Model
350
261
  0
DICTIONARY
  5
263
102
{ACAD_REACTORS
330
C
102
}
100
AcDbDictionary
280
     0
281
     1
  0
WIPEOUTVARIABLES
  5
264
100
AcDbWipeoutVariables
 70
     1
  0
ENDSEC
  0
EOF
